<svg width="1049" height="1094" viewBox="0 0 1049 1094" fill="none" xmlns="http://www.w3.org/2000/svg">
<path opacity="0.3" d="M20.248 548.206C36.2879 579.015 68.2383 601.208 103.152 603.548C134.057 605.59 168.013 591.921 182.19 563.003C194.748 537.373 190.738 501.291 165.936 484.277C144.054 469.262 109.34 473.914 93.9925 496.126C78.4306 518.633 90.0738 547.949 109.438 563.785C132.936 583.07 164.717 581.398 191.34 569.823C226.723 554.489 251.593 524.344 278.458 497.921C303.523 473.261 334.692 449.047 371.54 448.375C409.66 447.653 440.683 475.86 454.077 509.827C460.862 527.042 463.796 545.626 464.04 564.073C464.296 582.782 461.722 601.815 454.536 619.204C441.344 651.089 408.376 678.737 372.03 670.955C356.264 667.574 341.462 657.854 333.848 643.411C326.394 629.262 327.457 612.355 334.268 598.191C341.124 583.82 353.317 572.691 368.253 567.174C383.819 561.52 401.016 561.807 416.837 566.269C455.82 577.279 481.125 612.198 497.682 647.121C513.571 680.635 525.022 717.924 552.985 743.886C564.336 754.43 578.049 762.918 593.312 766.244C608.986 769.634 624.906 766.824 639.321 760.003C675.354 743.016 696.105 706.67 728.43 684.671C755.003 666.597 787.51 657.883 819.547 659.127C835.598 659.715 851.445 662.914 866.467 668.598C884.486 675.49 900.187 687.26 918.342 693.81C932.576 698.936 949.836 700.396 963.251 692.205C979.065 682.552 983.913 663.295 989.376 646.87C994.556 631.256 1003.63 612.745 1021.69 609.877C1023.13 609.647 1022.49 607.48 1021.08 607.716C1005.02 610.274 995.383 625.145 989.758 639.19C982.812 656.546 979.979 678.611 963.051 689.677C947.612 699.791 927.649 695.804 911.855 688.81C895.169 681.357 880.114 670.906 862.746 664.907C833.467 654.775 801.068 654.265 771.275 662.515C756.328 666.626 742.111 673.034 729.132 681.511C712.714 692.293 699.267 706.679 685.643 720.672C660.838 746.027 628.708 773.54 590.522 763.231C555.264 753.676 533.672 720.842 519.112 689.725C502.405 653.934 489.398 615.766 459.506 588.304C435.831 566.567 401.458 553.878 369.772 564.276C343.256 573.02 322.823 600.47 326.878 629.021C331.173 659.122 363.095 677.674 391.837 674.039C425.56 669.766 450.329 641.555 460.083 610.451C470.352 577.619 468.525 538.599 455.291 506.871C442.419 476.021 415.088 449.864 380.722 446.496C348.517 443.338 317.87 460.189 294.115 480.413C263.523 506.477 239.497 540.411 204.286 560.764C177.359 576.34 141.803 584.182 114.606 564.925C92.3582 549.168 78.348 515.523 99.4734 492.884C109.623 482.013 125.118 477.139 139.729 477.959C155.46 478.676 169.833 487.082 178.17 500.442C186.654 514.056 188.741 531.113 185.441 546.666C181.916 563.038 172.231 577.427 158.391 586.855C128.812 607.322 88.8106 605.227 58.9044 586.704C43.3375 577.021 30.6568 563.335 22.1872 547.076C21.5138 545.772 19.582 546.923 20.248 548.206Z" fill="#9A97ED"/>
</svg>
